<svg width="316" height="240" viewBox="0 0 316 240" fill="none" xmlns="http://www.w3.org/2000/svg">
<path d="M6.03211 229.466C8.09238 232.605 11.2318 235.45 14.5675 237.02C16.3335 237.903 18.6881 238.786 20.2578 239.08C23.4954 239.571 26.9292 239.276 30.363 238.099C33.7968 237.02 36.3476 235.352 39.3889 232.115C40.4681 231.035 40.9587 230.349 40.9587 230.054C40.9587 229.466 34.7779 223.187 34.1892 223.187C33.8949 223.187 33.4043 223.481 33.0119 223.873C30.1668 226.522 26.8311 227.798 23.5935 227.7C21.1408 227.503 19.5711 226.62 17.8051 224.462C16.1373 222.304 15.1562 220.047 14.1751 216.319C12.7035 210.236 12.5073 203.369 13.3902 196.697C14.5675 188.26 18.0994 183.06 22.8086 182.766C25.9481 182.57 28.4989 184.336 29.5781 187.475C30.1668 189.143 30.4611 190.811 30.5592 193.852C30.6573 196.894 30.7554 197.188 31.5403 197.188C31.7365 197.188 33.5024 196.796 35.3665 196.305C37.3286 195.814 39.2908 195.324 39.8795 195.226C41.3511 194.833 41.5473 194.637 41.4492 193.166C41.4492 191.498 40.5662 187.475 39.7813 185.023C38.5059 181.196 36.5438 177.959 34.1892 176.095C33.0119 175.015 30.0686 173.446 28.3027 172.955C26.9292 172.465 24.3784 172.072 22.8086 172.072C16.7259 172.072 9.36777 176.487 5.73776 182.177C3.18694 186.102 0.832343 194.049 0.145593 201.309C-0.148727 203.761 0.0474831 209.451 0.341813 212.395C1.421 220.243 2.89265 224.756 6.03211 229.466Z" fill="#00241B"/>
<path d="M57.4409 185.905C53.1241 186.592 48.9055 189.536 46.0603 193.852C43.3133 198.071 41.8417 202.388 41.0568 208.078C40.7625 210.334 40.6644 217.987 40.9587 220.243C41.8417 230.25 46.649 237.412 53.3203 239.178C54.8901 239.571 57.9314 239.571 59.5993 239.276C61.5614 238.786 63.916 237.609 65.3877 236.235C66.7612 234.96 68.9196 232.115 69.8025 230.447L70.4893 229.269L70.7836 233.292C71.0779 238.001 71.176 238.59 71.4704 239.178L71.7647 239.571L74.3155 239.473C77.5531 239.276 79.6134 238.982 80.1039 238.688C80.3982 238.393 80.3982 238.295 80.202 235.646C79.8096 228.975 79.7115 215.534 79.9077 201.014C80.0058 193.264 80.0058 186.592 80.0058 186.396C79.7115 185.415 79.4171 185.317 75.0023 185.317C71.2742 185.317 70.8817 185.317 70.5874 185.611C70.3912 185.905 70.2931 186.298 70.195 188.947L70.0969 192.086L69.6063 191.007C68.429 188.751 66.4669 187.181 63.916 186.298C62.3463 185.807 59.4031 185.611 57.4409 185.905ZM53.2222 207.587C54.0071 203.271 54.8901 201.21 56.656 199.444C58.422 197.679 60.0898 197.188 62.2482 197.875C64.5047 198.561 65.8782 200.327 66.7612 203.859C67.2517 205.527 67.2517 206.116 67.2517 207.98C67.3498 209.942 67.2517 210.334 66.5649 212.885C65.7801 216.221 64.5047 219.655 63.2293 222.5C61.8557 225.443 60.8747 226.817 59.6974 227.307C59.403 227.503 58.9125 227.7 58.6182 227.7C58.1276 227.896 56.5579 227.405 55.6749 226.817C54.8901 226.326 53.8109 224.756 53.3203 223.187C51.9468 218.87 51.9468 214.455 53.2222 207.587Z" fill="#00241B"/>
<path d="M108.948 186.102C107.182 186.494 104.533 187.868 102.865 189.045C101.295 190.222 98.7445 192.871 97.3709 194.735L96.3899 196.109V194.735C96.3899 193.558 96.3899 192.381 96.7823 187.77C96.8804 186.298 96.8804 186.298 96.488 186.102C95.9974 185.807 90.1109 185.219 87.5601 185.219C85.4998 185.219 85.4998 185.219 85.3036 186.298C84.9112 188.653 84.3225 202.388 84.3225 208.372C84.3225 219.949 85.7942 238.001 86.8734 239.276C87.0696 239.473 87.2658 239.473 87.8544 239.473C88.2469 239.375 90.5034 239.08 92.7599 238.786C95.9974 238.393 97.0766 238.197 97.2728 238.001C97.5672 237.707 97.5672 237.51 97.2728 234.862C96.8804 231.133 96.9785 224.953 97.4691 221.519C98.2539 216.417 100.412 210.04 102.669 206.018C106.201 199.739 109.34 197.286 113.363 197.384C114.344 197.482 114.834 197.384 115.03 197.286C115.129 197.188 115.325 196.697 115.325 196.305C115.423 195.814 115.717 193.656 116.012 191.498C116.698 187.083 116.796 186.396 116.404 186.102C115.717 185.513 111.302 185.415 108.948 186.102Z" fill="#00241B"/>
<path d="M144.659 215.73C144.267 218.968 142.795 221.617 140.244 223.677C138.969 224.756 135.829 226.424 133.475 227.209C131.807 227.896 131.905 227.994 131.611 225.934C130.532 218.87 129.943 210.04 130.139 204.056L130.237 200.916H132.199C137.89 200.916 140.931 202.486 142.991 206.606C144.071 208.765 144.855 213.376 144.659 215.73ZM155.059 213.572C155.059 208.765 154.862 206.999 153.685 203.467C151.919 198.169 148.878 193.754 145.346 191.4C141.52 188.947 137.497 188.26 131.807 188.947C130.924 189.143 130.924 189.045 131.022 188.751C131.022 188.456 131.218 186.396 131.513 183.943C131.709 181.589 132.101 178.351 132.396 176.781C132.69 175.212 132.886 173.74 132.886 173.544C132.886 172.955 132.199 172.759 128.864 172.367C125.136 171.876 122.879 171.778 122.585 172.17C122.192 172.563 121.506 177.076 120.525 184.728C119.151 195.814 118.562 210.138 119.151 219.949C119.642 228.092 120.034 231.133 120.917 235.646C121.702 239.178 121.702 239.178 123.173 239.375C123.468 239.473 125.626 239.473 127.981 239.375C133.867 239.375 137.595 238.786 141.912 237.216C147.112 235.254 152.017 229.662 153.881 223.481C154.862 219.949 155.059 217.987 155.059 213.572Z" fill="#00241B"/>
<path d="M176.25 186.298C166.145 189.241 158.983 200.229 158.983 212.787C158.983 226.326 167.126 237.707 178.31 239.767C181.155 240.257 185.178 239.963 187.925 238.982C196.362 236.039 202.543 227.602 204.015 217.398C204.309 214.946 204.309 210.629 204.015 208.176C201.856 192.675 189.102 182.668 176.25 186.298ZM193.125 215.632C192.34 219.164 190.966 221.715 188.71 223.972C187.042 225.541 185.57 226.424 183.706 226.915C183.118 227.111 182.137 227.209 181.548 227.209C176.348 227.111 172.031 222.5 170.952 215.829C170.56 213.768 170.854 210.04 171.345 208.078C171.835 206.214 173.012 203.761 173.994 202.29C176.642 198.561 180.665 196.697 184.295 197.482C188.514 198.365 191.555 201.799 193.027 207.195C193.615 209.353 193.615 213.278 193.125 215.632Z" fill="#00241B"/>
<path d="M230.21 200.033C232.368 198.66 233.545 199.543 234.134 202.976C234.723 206.606 234.821 209.059 234.821 223.873C234.821 237.903 234.821 238.492 235.115 238.786C235.409 239.178 235.606 239.178 238.647 239.178C243.65 239.276 244.533 239.276 244.828 238.982C245.024 238.59 245.318 218.477 245.122 211.119C245.024 204.742 244.435 199.543 243.454 195.716C242.277 191.007 240.315 188.26 237.273 187.083C236.096 186.69 235.802 186.69 233.84 186.69C230.504 186.69 228.836 187.279 225.991 189.437C223.931 191.007 222.165 192.773 220.889 194.735C220.301 195.618 219.81 196.305 219.81 196.403C219.712 196.403 219.712 195.52 219.81 194.343C219.908 192.086 220.203 189.536 220.595 187.671C220.987 186.102 220.987 185.906 220.399 185.709C218.535 184.924 211.569 184.924 210.98 185.611C210.49 186.396 209.901 190.026 209.313 196.207C209.116 198.856 208.822 201.701 208.724 202.682C208.626 203.565 208.528 206.41 208.43 209.059C208.135 214.357 208.331 220.636 208.822 224.854C209.411 230.054 210.588 235.646 211.471 237.903L211.863 238.884H216.18C221.674 238.982 221.184 239.178 221.184 236.039C221.282 233.194 221.38 230.741 222.067 225.149C223.342 213.67 224.323 209.55 226.678 204.84C227.855 202.388 228.934 200.818 230.21 200.033Z" fill="#00241B"/>
<path fill-rule="evenodd" clip-rule="evenodd" d="M258.072 183.551C256.993 184.041 255.031 184.14 254.05 183.845C252.48 183.355 251.401 182.57 250.518 181.294C248.85 178.94 248.752 175.702 250.224 173.348C251.99 170.601 255.62 169.816 258.563 171.68C261.408 173.544 262.585 177.566 261.016 180.706C260.525 181.785 259.152 183.158 258.072 183.551Z" fill="#00241B"/>
<path fill-rule="evenodd" clip-rule="evenodd" d="M252.284 239.865C253.167 239.865 254.05 239.963 254.344 239.963C254.54 239.963 256.208 239.963 258.17 239.865C260.721 239.767 261.604 239.669 261.801 239.473C261.997 239.276 261.997 238.688 261.801 235.646C261.702 233.684 261.604 222.206 261.604 210.138C261.506 194.049 261.408 188.162 261.31 187.966C261.016 187.671 251.009 187.671 250.518 187.966C250.224 188.162 250.224 188.554 250.126 199.543C250.027 205.723 249.929 215.142 249.929 220.538C249.733 231.526 249.929 238.786 250.42 239.473C250.616 239.767 250.812 239.865 252.284 239.865Z" fill="#00241B"/>
<path d="M294.372 183.551C298.984 185.023 302.417 190.124 303.987 197.58C304.576 200.131 304.772 205.331 304.478 207.98C303.595 214.651 301.142 220.341 297.512 223.677C296.138 224.953 294.667 225.737 292.999 226.228C290.841 226.719 289.173 226.522 287.112 225.443C283.581 223.579 280.735 219.164 279.264 213.376C278.577 210.531 278.381 208.569 278.381 205.331C278.381 191.596 286.328 180.902 294.372 183.551ZM275.732 231.918C279.362 235.548 283.286 237.707 287.603 238.393C289.271 238.688 292.803 238.688 294.274 238.295C297.12 237.707 299.965 236.529 302.417 234.763C304.183 233.488 307.323 230.349 308.696 228.583C314.583 220.342 317.036 208.863 315.27 197.678C313.013 183.845 304.281 173.446 293.588 171.876C291.724 171.68 288.29 171.778 286.524 172.268C278.381 174.231 271.415 181.393 268.079 191.301C266.412 196.109 265.921 199.641 265.921 205.331C265.921 210.825 266.412 214.161 267.883 218.674C269.649 224.07 272.102 228.288 275.732 231.918Z" fill="#00241B"/>
<path fill-rule="evenodd" clip-rule="evenodd" d="M165.213 0.969758L177.92 13.6777L177.953 13.6447C178.55 14.2747 178.915 15.1047 178.915 16.0007C178.915 16.8957 178.584 17.7257 177.953 18.3557L165.246 31.0637C164.582 31.6937 163.753 32.0257 162.89 32.0257C162.027 32.0257 161.198 31.7267 160.534 31.0637C159.24 29.7697 159.24 27.6787 160.534 26.3847L168.73 18.1897C165.677 17.6927 162.591 17.4267 159.506 17.4267C127.687 17.4267 101.775 43.3066 101.775 75.1576C101.775 76.9826 100.282 78.4755 98.4568 78.4755C96.6318 78.4755 95.1389 76.9825 95.1389 75.1576C95.1389 39.6566 124.004 10.7907 159.506 10.7577C161.662 10.7577 163.819 10.8577 165.976 11.0897L160.534 5.64874C159.24 4.35474 159.24 2.26375 160.534 0.96975C161.828 -0.32325 163.919 -0.323242 165.213 0.969758Z" fill="#00241B"/>
<path fill-rule="evenodd" clip-rule="evenodd" d="M219.858 110.924C221.617 110.393 223.441 111.356 224.005 113.114L224.072 113.014C224.603 114.74 223.64 116.631 221.882 117.162L204.729 122.504C204.397 122.603 204.065 122.67 203.733 122.67C202.307 122.67 200.979 121.774 200.548 120.347L195.206 103.194C194.675 101.468 195.638 99.5775 197.396 99.0465C199.154 98.5155 200.979 99.4785 201.543 101.236L204.861 111.853C207.084 109.033 209.141 106.047 210.833 102.829C218 89.1925 219.394 73.5656 214.815 58.8336C210.236 44.1026 200.183 32.0587 186.513 24.8917C184.888 24.0297 184.257 22.0387 185.12 20.4127C185.982 18.7877 187.973 18.1567 189.599 19.0197C204.828 27.0157 216.043 40.4526 221.152 56.8766C226.262 73.2996 224.702 90.7185 216.706 105.947C215.346 108.502 213.82 110.957 212.161 113.313L219.858 110.924Z" fill="#00241B"/>
<path fill-rule="evenodd" clip-rule="evenodd" d="M188.935 124.594C190.495 123.665 192.552 124.163 193.481 125.755H193.415C194.344 127.315 193.813 129.372 192.253 130.301C182.167 136.273 170.919 139.358 159.473 139.358C154.164 139.358 148.822 138.695 143.514 137.335C126.825 133.088 112.823 122.603 104.031 107.839C102.571 105.383 101.277 102.795 100.149 100.141L98.1579 107.971C97.7599 109.464 96.4329 110.46 94.9399 110.46C94.6739 110.46 94.3759 110.427 94.1099 110.36C92.3519 109.896 91.2569 108.104 91.7209 106.312L96.1339 88.8935C96.3659 88.0645 96.8969 87.3345 97.6599 86.8705C98.4239 86.4055 99.3189 86.2725 100.182 86.5055L117.601 90.9175C119.359 91.3825 120.454 93.1745 119.99 94.9655C119.558 96.7245 117.734 97.7855 115.975 97.3545L105.126 94.6005C106.353 98.0185 107.913 101.302 109.771 104.454C117.8 117.958 130.507 126.95 144.608 130.699C145.405 125.423 149.32 121.176 154.429 119.849V109.862C140.892 107.075 132.498 102.697 128.251 96.1935C125.066 91.2825 124.303 85.1775 125.995 78.0446C126.36 76.4516 127.853 75.3566 129.479 75.4896C136.579 76.0206 142.518 77.5796 147.296 80.0026C145.902 70.4136 150.315 62.8156 155.358 57.5066C156.619 56.1796 158.909 56.1796 160.169 57.5066C165.213 62.8156 169.625 70.4136 168.232 80.0026C173.01 77.5796 178.949 76.0536 186.049 75.4896C187.641 75.3566 189.168 76.4516 189.533 78.0446C191.258 85.1775 190.495 91.2825 187.276 96.1935C183.03 102.73 174.635 107.075 161.098 109.862V119.849C166.44 121.243 170.455 125.821 170.986 131.462C177.157 130.234 183.229 127.978 188.935 124.594ZM157.78 89.0935C163.388 80.2015 163.388 72.3706 157.78 64.9386C152.173 72.4046 152.173 80.2015 157.78 89.0935ZM150.514 90.7185C146.898 86.3065 140.66 83.5185 131.967 82.4245C131.436 86.4715 132.067 89.8225 133.859 92.5765C136.911 97.2555 143.679 100.738 154.463 103.094C154.463 98.0845 153.135 93.9035 150.514 90.7185ZM181.736 92.5765C183.527 89.8225 184.158 86.4715 183.627 82.4245C174.967 83.5185 168.73 86.3055 165.08 90.7185C162.459 93.9035 161.132 98.0515 161.132 103.094C171.915 100.738 178.65 97.2885 181.736 92.5765Z" fill="#00241B"/>
</svg>
