<svg xmlns:mydata="http://www.w3.org/2000/svg" mydata:contrastcolor="64a70b" mydata:template="Contrast" mydata:presentation="2.5" mydata:layouttype="undefined" mydata:specialfontid="undefined" mydata:id1="680" mydata:id2="107" mydata:companyname="CarboniO" mydata:companytagline="" version="1.1" xmlns="http://www.w3.org/2000/svg" xmlns:xlink="http://www.w3.org/1999/xlink" viewBox="0 0 550 470" class="svg-notepad" width="550"  height="470" ><g fill="none" fill-rule="none" stroke="none" stroke-width="1" stroke-linecap="butt" stroke-linejoin="miter" stroke-miterlimit="10" stroke-dasharray="" stroke-dashoffset="0" font-family="none" font-weight="none" font-size="none" text-anchor="none" style="mix-blend-mode: normal"><g data-paper-data="{&quot;isGlobalGroup&quot;:true,&quot;bounds&quot;:{&quot;x&quot;:117.08431128981664,&quot;y&quot;:114.99999999999997,&quot;width&quot;:315.8313774203667,&quot;height&quot;:240.00000000000003}}" fill="none"><g data-paper-data="{&quot;isPrimaryText&quot;:true}" fill="none"><path d="M123.11641,344.4656c2.06027,3.13947 5.19974,5.98461 8.53542,7.55434c1.76595,0.88297 4.12055,1.76595 5.69028,2.06027c3.23757,0.49054 6.67137,0.19622 10.10516,-0.98108c3.43379,-1.07919 5.98461,-2.74703 9.02597,-5.98461c1.07919,-1.07919 1.56973,-1.76595 1.56973,-2.06027c0,-0.58865 -6.18082,-6.86758 -6.76947,-6.86758c-0.29432,0 -0.78487,0.29432 -1.1773,0.68676c-2.84514,2.64892 -6.18082,3.92433 -9.4184,3.82622c-2.45271,-0.19622 -4.02244,-1.07919 -5.78839,-3.23757c-1.66784,-2.15838 -2.64892,-4.41487 -3.63001,-8.14299c-1.47162,-6.08272 -1.66784,-12.9503 -0.78487,-19.62167c1.1773,-8.43732 4.7092,-13.63706 9.4184,-13.93138c3.13947,-0.19622 5.69028,1.56973 6.76947,4.7092c0.58865,1.66784 0.88297,3.33568 0.98108,6.37704c0.09811,3.04136 0.19622,3.33568 0.98108,3.33568c0.19622,0 1.96217,-0.39243 3.82622,-0.88297c1.96217,-0.49054 3.92433,-0.98108 4.51298,-1.07919c1.47162,-0.39243 1.66784,-0.58865 1.56973,-2.06027c0,-1.66784 -0.88297,-5.69028 -1.66784,-8.14299c-1.27541,-3.82622 -3.23757,-7.0638 -5.59217,-8.92786c-1.1773,-1.07919 -4.12055,-2.64892 -5.8865,-3.13947c-1.37352,-0.49054 -3.92433,-0.88297 -5.49407,-0.88297c-6.08272,0 -13.44084,4.41487 -17.07085,10.10516c-2.55082,3.92433 -4.90542,11.87111 -5.59217,19.13112c-0.29432,2.45271 -0.09811,8.14299 0.19622,11.08624c1.07919,7.84867 2.55082,12.36165 5.69028,17.07085z" data-paper-data="{&quot;glyphName&quot;:&quot;C&quot;,&quot;glyphIndex&quot;:0,&quot;firstGlyphOfWord&quot;:true,&quot;word&quot;:1}" fill="#00241B" fill-rule="nonzero"></path><path d="M174.52517,300.9055c-4.31677,0.68676 -8.53542,3.63001 -11.38057,7.94677c-2.74703,4.21866 -4.21866,8.53542 -5.00352,14.22571c-0.29432,2.25649 -0.39243,9.90894 -0.09811,12.16543c0.88297,10.00705 5.69028,17.16896 12.36165,18.93491c1.56973,0.39243 4.61109,0.39243 6.27893,0.09811c1.96217,-0.49054 4.31677,-1.66784 5.78839,-3.04136c1.37352,-1.27541 3.5319,-4.12055 4.41487,-5.78839l0.68676,-1.1773l0.29432,4.02244c0.29432,4.7092 0.39243,5.29785 0.68676,5.8865l0.29432,0.39243l2.55082,-0.09811c3.23757,-0.19622 5.29785,-0.49054 5.78839,-0.78487c0.29432,-0.29432 0.29432,-0.39243 0.09811,-3.04136c-0.39243,-6.67137 -0.49054,-20.11221 -0.29432,-34.63224c0.09811,-7.75056 0.09811,-14.42192 0.09811,-14.61814c-0.29432,-0.98108 -0.58865,-1.07919 -5.00352,-1.07919c-3.72812,0 -4.12055,0 -4.41487,0.29432c-0.19622,0.29432 -0.29432,0.68676 -0.39243,3.33568l-0.09811,3.13947l-0.49054,-1.07919c-1.1773,-2.25649 -3.13947,-3.82622 -5.69028,-4.7092c-1.56973,-0.49054 -4.51298,-0.68676 -6.47515,-0.39243zM170.30651,322.58744c0.78487,-4.31677 1.66784,-6.37704 3.43379,-8.14299c1.76595,-1.76595 3.43379,-2.25649 5.59217,-1.56973c2.25649,0.68676 3.63001,2.45271 4.51298,5.98461c0.49054,1.66784 0.49054,2.25649 0.49054,4.12055c0.09811,1.96217 0,2.3546 -0.68676,4.90542c-0.78487,3.33568 -2.06027,6.76947 -3.33568,9.61462c-1.37352,2.94325 -2.3546,4.31677 -3.5319,4.80731c-0.29432,0.19622 -0.78487,0.39243 -1.07919,0.39243c-0.49054,0.19622 -2.06027,-0.29432 -2.94325,-0.88297c-0.78487,-0.49054 -1.86406,-2.06027 -2.3546,-3.63001c-1.37352,-4.31677 -1.37352,-8.73164 -0.09811,-15.59922z" data-paper-data="{&quot;glyphName&quot;:&quot;a&quot;,&quot;glyphIndex&quot;:1,&quot;word&quot;:1}" fill="#00241B" fill-rule="nonzero"></path><path d="M226.03204,301.10172c-1.76595,0.39243 -4.41487,1.76595 -6.08272,2.94325c-1.56973,1.1773 -4.12055,3.82622 -5.49407,5.69028l-0.98108,1.37352v-1.37352c0,-1.1773 0,-2.3546 0.39243,-6.96569c0.09811,-1.47162 0.09811,-1.47162 -0.29432,-1.66784c-0.49054,-0.29432 -6.37704,-0.88297 -8.92786,-0.88297c-2.06027,0 -2.06027,0 -2.25649,1.07919c-0.39243,2.3546 -0.98108,16.08977 -0.98108,22.07437c0,11.57678 1.47162,29.62871 2.55082,30.90412c0.19622,0.19622 0.39243,0.19622 0.98108,0.19622c0.39243,-0.09811 2.64892,-0.39243 4.90542,-0.68676c3.23757,-0.39243 4.31677,-0.58865 4.51298,-0.78487c0.29432,-0.29432 0.29432,-0.49054 0,-3.13947c-0.39243,-3.72812 -0.29432,-9.90894 0.19622,-13.34273c0.78487,-5.10163 2.94325,-11.47867 5.19974,-15.50112c3.5319,-6.27893 6.67137,-8.73164 10.69381,-8.63353c0.98108,0.09811 1.47162,0 1.66784,-0.09811c0.09811,-0.09811 0.29432,-0.58865 0.29432,-0.98108c0.09811,-0.49054 0.39243,-2.64892 0.68676,-4.80731c0.68676,-4.41487 0.78487,-5.10163 0.39243,-5.39596c-0.68676,-0.58865 -5.10163,-0.68676 -7.45623,0z" data-paper-data="{&quot;glyphName&quot;:&quot;r&quot;,&quot;glyphIndex&quot;:2,&quot;word&quot;:1}" fill="#00241B" fill-rule="nonzero"></path><path d="M261.74347,330.73043c-0.39243,3.23757 -1.86406,5.8865 -4.41487,7.94677c-1.27541,1.07919 -4.41487,2.74703 -6.76947,3.5319c-1.66784,0.68676 -1.56973,0.78487 -1.86406,-1.27541c-1.07919,-7.0638 -1.66784,-15.89355 -1.47162,-21.87816l0.09811,-3.13947h1.96217c5.69028,0 8.73164,1.56973 10.79192,5.69028c1.07919,2.15838 1.86406,6.76947 1.66784,9.12407zM272.14295,328.57205c0,-4.80731 -0.19622,-6.57326 -1.37352,-10.10516c-1.76595,-5.29785 -4.80731,-9.71272 -8.33921,-12.06732c-3.82622,-2.45271 -7.84867,-3.13947 -13.53895,-2.45271c-0.88297,0.19622 -0.88297,0.09811 -0.78487,-0.19622c0,-0.29432 0.19622,-2.3546 0.49054,-4.80731c0.19622,-2.3546 0.58865,-5.59217 0.88297,-7.16191c0.29432,-1.56973 0.49054,-3.04136 0.49054,-3.23757c0,-0.58865 -0.68676,-0.78487 -4.02244,-1.1773c-3.72812,-0.49054 -5.98461,-0.58865 -6.27893,-0.19622c-0.39243,0.39243 -1.07919,4.90542 -2.06027,12.55787c-1.37352,11.08624 -1.96217,25.41006 -1.37352,35.22089c0.49054,8.14299 0.88297,11.18435 1.76595,15.69733c0.78487,3.5319 0.78487,3.5319 2.25649,3.72812c0.29432,0.09811 2.45271,0.09811 4.80731,0c5.8865,0 9.61462,-0.58865 13.93138,-2.15838c5.19974,-1.96217 10.10516,-7.55434 11.96922,-13.73517c0.98108,-3.5319 1.1773,-5.49407 1.1773,-9.90894z" data-paper-data="{&quot;glyphName&quot;:&quot;b&quot;,&quot;glyphIndex&quot;:3,&quot;word&quot;:1}" fill="#00241B" fill-rule="nonzero"></path><path d="M293.33435,301.29794c-10.10516,2.94325 -17.26707,13.93138 -17.26707,26.48925c0,13.53895 8.14299,24.91951 19.32734,26.97979c2.84514,0.49054 6.86758,0.19622 9.61462,-0.78487c8.43732,-2.94325 14.61814,-11.38057 16.08977,-21.58383c0.29432,-2.45271 0.29432,-6.76947 0,-9.22218c-2.15838,-15.50112 -14.91247,-25.50816 -27.76466,-21.87816zM310.20898,330.63233c-0.78487,3.5319 -2.15838,6.08272 -4.41487,8.33921c-1.66784,1.56973 -3.13947,2.45271 -5.00352,2.94325c-0.58865,0.19622 -1.56973,0.29432 -2.15838,0.29432c-5.19974,-0.09811 -9.51651,-4.7092 -10.5957,-11.38057c-0.39243,-2.06027 -0.09811,-5.78839 0.39243,-7.75056c0.49054,-1.86406 1.66784,-4.31677 2.64892,-5.78839c2.64892,-3.72812 6.67137,-5.59217 10.30137,-4.80731c4.21866,0.88297 7.26002,4.31677 8.73164,9.71272c0.58865,2.15838 0.58865,6.08272 0.09811,8.43732z" data-paper-data="{&quot;glyphName&quot;:&quot;o&quot;,&quot;glyphIndex&quot;:4,&quot;word&quot;:1}" fill="#00241B" fill-rule="nonzero"></path><path d="M347.29393,315.0331c2.15838,-1.37352 3.33568,-0.49054 3.92433,2.94325c0.58865,3.63001 0.68676,6.08272 0.68676,20.89707c0,14.02949 0,14.61814 0.29432,14.91247c0.29432,0.39243 0.49054,0.39243 3.5319,0.39243c5.00352,0.09811 5.8865,0.09811 6.18082,-0.19622c0.19622,-0.39243 0.49054,-20.50464 0.29432,-27.86276c-0.09811,-6.37704 -0.68676,-11.57678 -1.66784,-15.40301c-1.1773,-4.7092 -3.13947,-7.45623 -6.18082,-8.63353c-1.1773,-0.39243 -1.47162,-0.39243 -3.43379,-0.39243c-3.33568,0 -5.00352,0.58865 -7.84867,2.74703c-2.06027,1.56973 -3.82622,3.33568 -5.10163,5.29785c-0.58865,0.88297 -1.07919,1.56973 -1.07919,1.66784c-0.09811,0 -0.09811,-0.88297 0,-2.06027c0.09811,-2.25649 0.39243,-4.80731 0.78487,-6.67137c0.39243,-1.56973 0.39243,-1.76595 -0.19622,-1.96217c-1.86406,-0.78487 -8.82975,-0.78487 -9.4184,-0.09811c-0.49054,0.78487 -1.07919,4.41487 -1.66784,10.5957c-0.19622,2.64892 -0.49054,5.49407 -0.58865,6.47515c-0.09811,0.88297 -0.19622,3.72812 -0.29432,6.37704c-0.29432,5.29785 -0.09811,11.57678 0.39243,15.79544c0.58865,5.19974 1.76595,10.79192 2.64892,13.04841l0.39243,0.98108h4.31677c5.49407,0.09811 5.00352,0.29432 5.00352,-2.84514c0.09811,-2.84514 0.19622,-5.29785 0.88297,-10.89002c1.27541,-11.47867 2.25649,-15.59922 4.61109,-20.30842c1.1773,-2.45271 2.25649,-4.02244 3.5319,-4.80731z" data-paper-data="{&quot;glyphName&quot;:&quot;n&quot;,&quot;glyphIndex&quot;:5,&quot;word&quot;:1}" fill="#00241B" fill-rule="nonzero"></path><g data-paper-data="{&quot;glyphName&quot;:&quot;i&quot;,&quot;glyphIndex&quot;:6,&quot;word&quot;:1}" fill-rule="evenodd" fill="none"><path d="M375.15669,298.5509c-1.07919,0.49054 -3.04136,0.58865 -4.02244,0.29432c-1.56973,-0.49054 -2.64892,-1.27541 -3.5319,-2.55082c-1.66784,-2.3546 -1.76595,-5.59217 -0.29432,-7.94677c1.76595,-2.74703 5.39596,-3.5319 8.33921,-1.66784c2.84514,1.86406 4.02244,5.8865 2.45271,9.02597c-0.49054,1.07919 -1.86406,2.45271 -2.94325,2.84514z" fill="#00241B"></path><path d="M369.3683,354.86508c0.88297,0 1.76595,0.09811 2.06027,0.09811c0.19622,0 1.86406,0 3.82622,-0.09811c2.55082,-0.09811 3.43379,-0.19622 3.63001,-0.39243c0.19622,-0.19622 0.19622,-0.78487 0,-3.82622c-0.09811,-1.96217 -0.19622,-13.44084 -0.19622,-25.50816c-0.09811,-16.08977 -0.19622,-21.97626 -0.29432,-22.17248c-0.29432,-0.29432 -10.30137,-0.29432 -10.79192,0c-0.29432,0.19622 -0.29432,0.58865 -0.39243,11.57678c-0.09811,6.18082 -0.19622,15.59922 -0.19622,20.99518c-0.19622,10.98813 0,18.24815 0.49054,18.93491c0.19622,0.29432 0.39243,0.39243 1.86406,0.39243z" fill="#00241B"></path></g><path d="M411.45677,298.5509c4.61109,1.47162 8.04488,6.57326 9.61462,14.02949c0.58865,2.55082 0.78487,7.75056 0.49054,10.39948c-0.88297,6.67137 -3.33568,12.36165 -6.96569,15.69733c-1.37352,1.27541 -2.84514,2.06027 -4.51298,2.55082c-2.15838,0.49054 -3.82622,0.29432 -5.8865,-0.78487c-3.5319,-1.86406 -6.37704,-6.27893 -7.84867,-12.06732c-0.68676,-2.84514 -0.88297,-4.80731 -0.88297,-8.04488c0,-13.73517 7.94677,-24.42897 15.99166,-21.78005zM392.81619,346.91831c3.63001,3.63001 7.55434,5.78839 11.87111,6.47515c1.66784,0.29432 5.19974,0.29432 6.67137,-0.09811c2.84514,-0.58865 5.69028,-1.76595 8.14299,-3.5319c1.76595,-1.27541 4.90542,-4.41487 6.27893,-6.18082c5.8865,-8.2411 8.33921,-19.71977 6.57326,-30.90412c-2.25649,-13.83327 -10.98813,-24.23276 -21.68194,-25.80249c-1.86406,-0.19622 -5.29785,-0.09811 -7.0638,0.39243c-8.14299,1.96217 -15.10868,9.12407 -18.44437,19.03302c-1.66784,4.80731 -2.15838,8.33921 -2.15838,14.02949c0,5.49407 0.49054,8.82975 1.96217,13.34273c1.76595,5.39596 4.21866,9.61462 7.84867,13.24462z" data-paper-data="{&quot;glyphName&quot;:&quot;O&quot;,&quot;glyphIndex&quot;:7,&quot;lastGlyphOfWord&quot;:true,&quot;word&quot;:1}" fill="#00241B" fill-rule="nonzero"></path></g><g data-paper-data="{&quot;fillRule&quot;:&quot;evenodd&quot;,&quot;fillRuleOriginal&quot;:&quot;evenodd&quot;,&quot;isIcon&quot;:true,&quot;iconStyle&quot;:&quot;standalone&quot;,&quot;selectedEffects&quot;:{&quot;container&quot;:&quot;&quot;,&quot;transformation&quot;:&quot;&quot;,&quot;pattern&quot;:&quot;&quot;},&quot;bounds&quot;:{&quot;x&quot;:208.6984386708889,&quot;y&quot;:114.99999999999997,&quot;width&quot;:132.60312265822222,&quot;height&quot;:139.35838371321827},&quot;iconType&quot;:&quot;icon&quot;,&quot;rawIconId&quot;:&quot;5084009&quot;,&quot;isDetailed&quot;:false,&quot;suitableAsStandaloneIcon&quot;:true}" fill-rule="evenodd" fill="none"><g data-paper-data="{&quot;isPathIcon&quot;:true}" fill="none"><path d="M282.29698,115.96975l12.70697,12.70797l0.033,-0.033c0.597,0.63 0.962,1.46 0.962,2.35599c0,0.895 -0.331,1.725 -0.962,2.35499l-12.70697,12.70797c-0.664,0.63 -1.493,0.962 -2.35599,0.962c-0.863,0 -1.692,-0.299 -2.35599,-0.962c-1.294,-1.294 -1.294,-3.38499 0,-4.67899l8.19598,-8.19498c-3.05299,-0.497 -6.13898,-0.763 -9.22398,-0.763c-31.81892,0 -57.73085,25.87993 -57.73085,57.73085c0,1.825 -1.493,3.31799 -3.31799,3.31799c-1.825,0 -3.31799,-1.493 -3.31799,-3.31799c0,-35.50091 28.86492,-64.36683 64.36683,-64.39983c2.15599,0 4.31299,0.1 6.46998,0.332l-5.44199,-5.44099c-1.294,-1.294 -1.294,-3.38499 0,-4.67899c1.294,-1.293 3.38499,-1.293 4.67899,0z" fill="#00241B"></path><path d="M336.94184,225.92446c1.759,-0.531 3.58299,0.432 4.14699,2.18999l0.067,-0.1c0.531,1.726 -0.432,3.61699 -2.18999,4.14799l-17.15295,5.34199c-0.332,0.099 -0.664,0.166 -0.996,0.166c-1.426,0 -2.75399,-0.896 -3.18499,-2.32299l-5.34199,-17.15295c-0.531,-1.726 0.432,-3.61699 2.18999,-4.14799c1.758,-0.531 3.58299,0.432 4.14699,2.18999l3.31799,10.61697c2.22299,-2.81999 4.27999,-5.80598 5.97198,-9.02398c7.16698,-13.63696 8.56098,-29.26392 3.98199,-43.99588c-4.57899,-14.73096 -14.63196,-26.77493 -28.30193,-33.94191c-1.625,-0.862 -2.25599,-2.85299 -1.393,-4.47899c0.862,-1.625 2.85299,-2.25599 4.47899,-1.393c15.22896,7.99598 26.44393,21.43294 31.55292,37.8569c5.10999,16.42296 3.54999,33.84191 -4.44599,49.07087c-1.36,2.55499 -2.88599,5.00999 -4.54499,7.36598z" fill="#00241B"></path><path d="M306.01892,239.59442c1.56,-0.929 3.61699,-0.431 4.54599,1.161h-0.066c0.929,1.56 0.398,3.61699 -1.162,4.54599c-10.08597,5.97198 -21.33394,9.05698 -32.77991,9.05698c-5.30899,0 -10.65097,-0.663 -15.95896,-2.02299c-16.68896,-4.24699 -30.69092,-14.73196 -39.4829,-29.49592c-1.46,-2.45599 -2.75399,-5.04399 -3.88199,-7.69798l-1.99099,7.82998c-0.398,1.493 -1.725,2.48899 -3.21799,2.48899c-0.266,0 -0.564,-0.033 -0.83,-0.1c-1.758,-0.464 -2.85299,-2.25599 -2.38899,-4.04799l4.41299,-17.41895c0.232,-0.829 0.763,-1.559 1.526,-2.02299c0.764,-0.465 1.659,-0.598 2.52199,-0.365l17.41895,4.41199c1.758,0.465 2.85299,2.25699 2.38899,4.04799c-0.432,1.759 -2.25599,2.81999 -4.01499,2.38899l-10.84897,-2.75399c1.227,3.41799 2.78699,6.70198 4.64499,9.85397c8.02898,13.50396 20.73595,22.49594 34.83691,26.24493c0.797,-5.27599 4.71199,-9.52297 9.82097,-10.84997v-9.98697c-13.53696,-2.78699 -21.93094,-7.16598 -26.17793,-13.66896c-3.18499,-4.91099 -3.94799,-11.01597 -2.25599,-18.14895c0.365,-1.593 1.858,-2.68799 3.48399,-2.55499c7.09998,0.531 13.03897,2.08999 17.81695,4.51299c-1.394,-9.58897 3.01899,-17.18695 8.06198,-22.49594c1.261,-1.327 3.55099,-1.327 4.81099,0c5.04399,5.30899 9.45598,12.90697 8.06298,22.49594c4.77799,-2.42299 10.71697,-3.94899 17.81695,-4.51299c1.592,-0.133 3.11899,0.962 3.48399,2.55499c1.725,7.13298 0.962,13.23797 -2.25699,18.14895c-4.24599,6.53598 -12.64097,10.88197 -26.17793,13.66896v9.98697c5.34199,1.394 9.35698,5.97198 9.88797,11.61297c6.17098,-1.228 12.24297,-3.48399 17.94895,-6.86798zM274.864,204.09352c5.60799,-8.89198 5.60799,-16.72296 0,-24.15494c-5.60699,7.46598 -5.60699,15.26296 0,24.15494zM267.59802,205.71851c-3.61599,-4.41199 -9.85397,-7.19998 -18.54695,-8.29398c-0.531,4.04699 0.1,7.39798 1.892,10.15197c3.05199,4.67899 9.81997,8.16198 20.60395,10.51797c0,-5.00999 -1.328,-9.19098 -3.94899,-12.37597zM298.81994,207.57651c1.791,-2.75399 2.42199,-6.10498 1.891,-10.15197c-8.65998,1.094 -14.89696,3.88099 -18.54695,8.29398c-2.62099,3.18499 -3.94799,7.33298 -3.94799,12.37597c10.78297,-2.35599 17.51795,-5.80598 20.60395,-10.51797z" fill="#00241B"></path></g></g></g></g></svg>